<?xml version="1.0" encoding="UTF-8" standalone="no"?>
<svg
   xmlns:dc="http://purl.org/dc/elements/1.1/"
   xmlns:cc="http://creativecommons.org/ns#"
   xmlns:rdf="http://www.w3.org/1999/02/22-rdf-syntax-ns#"
   xmlns:svg="http://www.w3.org/2000/svg"
   xmlns="http://www.w3.org/2000/svg"
   xmlns:sodipodi="http://sodipodi.sourceforge.net/DTD/sodipodi-0.dtd"
   xmlns:inkscape="http://www.inkscape.org/namespaces/inkscape"
   width="40"
   height="40"
   version="1.1"
   viewBox="0 0 40 40"
   id="svg30"
   sodipodi:docname="dock_text.svg"
   inkscape:version="0.92.5 (2060ec1f9f, 2020-04-08)">
  <metadata
     id="metadata36">
    <rdf:RDF>
      <cc:Work
         rdf:about="">
        <dc:format>image/svg+xml</dc:format>
        <dc:type
           rdf:resource="http://purl.org/dc/dcmitype/StillImage" />
        <dc:title></dc:title>
      </cc:Work>
    </rdf:RDF>
  </metadata>
  <defs
     id="defs34" />
  <sodipodi:namedview
     pagecolor="#ffffff"
     bordercolor="#666666"
     borderopacity="1"
     objecttolerance="10"
     gridtolerance="10"
     guidetolerance="10"
     inkscape:pageopacity="0"
     inkscape:pageshadow="2"
     inkscape:window-width="1920"
     inkscape:window-height="997"
     id="namedview32"
     showgrid="false"
     inkscape:zoom="7.552"
     inkscape:cx="66.194035"
     inkscape:cy="32.18303"
     inkscape:window-x="1920"
     inkscape:window-y="28"
     inkscape:window-maximized="1"
     inkscape:current-layer="svg30" />
  <g
     transform="matrix(0.75858708,0,0,0.80877685,1.1666271,-810.89793)"
     id="g28">
    <circle
       cx="25"
       cy="1027.4"
       r="23.150999"
       id="circle2"
       style="fill:none;stroke:#555555;stroke-width:2.08010006" />
    <path
       transform="translate(0,1002.4)"
       d="m 15.508,11.186 c -1.2433,0 -2.2598,1.0145 -2.2598,2.2578 v 23.115 c 0,1.2433 1.0164,2.2578 2.2598,2.2578 h 16.117 c 1.2433,0 2.2578,-1.0145 2.2578,-2.2578 v -1.0234 l -0.46094,0.19141 -0.45117,0.1875 v 0.64453 c 0,0.7539 -0.59181,1.3457 -1.3457,1.3457 h -16.117 c -0.75389,0 -1.3477,-0.5918 -1.3477,-1.3457 v -23.115 c 0,-0.7539 0.59374,-1.3457 1.3477,-1.3457 h 16.117 c 0.75392,0 1.3457,0.5918 1.3457,1.3457 v 16.725 l 0.91211,-0.96875 v -15.756 c 0,-1.2433 -1.0145,-2.2578 -2.2578,-2.2578 H 15.508 Z m 18.375,19.475 -0.82031,0.87109 0.82031,0.77148 v -1.6426 z m -0.91211,2.7383 v 1.4355 l 0.06836,-0.02734 0.54883,-0.23047 0.29492,-0.12109 v -0.19727 l -0.91211,-0.85937 z"
       style="color:#000000;text-indent:0;text-decoration:none;text-decoration-line:none;text-decoration-style:solid;text-decoration-color:#000000;text-transform:none;white-space:normal;isolation:auto;mix-blend-mode:normal;solid-color:#000000;fill:#555555;color-rendering:auto;image-rendering:auto;shape-rendering:auto"
       id="path4"
       inkscape:connector-curvature="0" />
    <path
       d="m 16.922,1017.8 a 0.45599,0.45599 0 0 0 0.04687,0.9102 h 13.195 a 0.45599,0.45599 0 1 0 0,-0.9102 h -13.195 a 0.45599,0.45599 0 0 0 -0.04687,0 z"
       style="color:#000000;text-indent:0;text-decoration:none;text-decoration-line:none;text-decoration-style:solid;text-decoration-color:#000000;text-transform:none;white-space:normal;isolation:auto;mix-blend-mode:normal;solid-color:#000000;fill:#555555;fill-rule:evenodd;color-rendering:auto;image-rendering:auto;shape-rendering:auto"
       id="path6"
       inkscape:connector-curvature="0" />
    <path
       d="m 16.969,1020.8 a 0.45605,0.45605 0 1 0 0,0.9121 h 13.195 a 0.45605,0.45605 0 0 0 0,-0.9121 z"
       style="color:#000000;text-indent:0;text-decoration:none;text-decoration-line:none;text-decoration-style:solid;text-decoration-color:#000000;text-transform:none;white-space:normal;isolation:auto;mix-blend-mode:normal;solid-color:#000000;fill:#555555;fill-rule:evenodd;color-rendering:auto;image-rendering:auto;shape-rendering:auto"
       id="path8"
       inkscape:connector-curvature="0" />
    <path
       d="m 16.969,1023.9 a 0.45605,0.45605 0 1 0 0,0.9121 h 13.195 a 0.45605,0.45605 0 0 0 0,-0.9121 z"
       style="color:#000000;text-indent:0;text-decoration:none;text-decoration-line:none;text-decoration-style:solid;text-decoration-color:#000000;text-transform:none;white-space:normal;isolation:auto;mix-blend-mode:normal;solid-color:#000000;fill:#555555;fill-rule:evenodd;color-rendering:auto;image-rendering:auto;shape-rendering:auto"
       id="path10"
       inkscape:connector-curvature="0" />
    <path
       d="m 16.969,1026.9 a 0.45605,0.45605 0 1 0 0,0.9121 h 13.195 a 0.45605,0.45605 0 0 0 0,-0.9121 z"
       style="color:#000000;text-indent:0;text-decoration:none;text-decoration-line:none;text-decoration-style:solid;text-decoration-color:#000000;text-transform:none;white-space:normal;isolation:auto;mix-blend-mode:normal;solid-color:#000000;fill:#555555;fill-rule:evenodd;color-rendering:auto;image-rendering:auto;shape-rendering:auto"
       id="path12"
       inkscape:connector-curvature="0" />
    <path
       d="m 16.969,1029.9 a 0.45605,0.45605 0 1 0 0,0.9121 h 13.195 a 0.45605,0.45605 0 0 0 0,-0.9121 z"
       style="color:#000000;text-indent:0;text-decoration:none;text-decoration-line:none;text-decoration-style:solid;text-decoration-color:#000000;text-transform:none;white-space:normal;isolation:auto;mix-blend-mode:normal;solid-color:#000000;fill:#555555;fill-rule:evenodd;color-rendering:auto;image-rendering:auto;shape-rendering:auto"
       id="path14"
       inkscape:connector-curvature="0" />
    <path
       d="m 16.969,1033 a 0.45605,0.45605 0 1 0 0,0.9121 h 13.195 a 0.45605,0.45605 0 0 0 0,-0.9121 z"
       style="color:#000000;text-indent:0;text-decoration:none;text-decoration-line:none;text-decoration-style:solid;text-decoration-color:#000000;text-transform:none;white-space:normal;isolation:auto;mix-blend-mode:normal;solid-color:#000000;fill:#555555;fill-rule:evenodd;color-rendering:auto;image-rendering:auto;shape-rendering:auto"
       id="path16"
       inkscape:connector-curvature="0" />
    <path
       d="m 16.969,1036 a 0.45605,0.45605 0 1 0 0,0.9121 h 13.195 a 0.45605,0.45605 0 0 0 0,-0.9121 z"
       style="color:#000000;text-indent:0;text-decoration:none;text-decoration-line:none;text-decoration-style:solid;text-decoration-color:#000000;text-transform:none;white-space:normal;isolation:auto;mix-blend-mode:normal;solid-color:#000000;fill:#555555;fill-rule:evenodd;color-rendering:auto;image-rendering:auto;shape-rendering:auto"
       id="path18"
       inkscape:connector-curvature="0" />
    <g
       transform="matrix(0.098732,0.023273,-0.023273,0.098732,25.86,948.81)"
       id="g24"
       style="fill:#555555">
      <path
         transform="translate(0,552.36)"
         d="m 303.57,167.92 c -1.0038,0.0702 -1.953,0.6237 -2.4961,1.5644 l -2.0039,3.4688 33.439,19.307 2.0039,-3.4688 c 0.86903,-1.5052 0.35676,-3.4181 -1.1484,-4.2871 l -28.006,-16.168 c -0.56445,-0.32588 -1.1868,-0.45812 -1.7891,-0.41601 z m -6.5859,8.6465 -42.156,73.018 33.439,19.305 42.156,-73.016 z m -44.242,76.631 -1.9863,3.4394 c -0.86903,1.5052 -0.35677,3.4161 1.1484,4.2852 l 28.006,16.168 c 1.5052,0.86903 3.4161,0.35676 4.2852,-1.1484 l 1.9863,-3.4394 -33.439,-19.305 z"
         id="path20"
         inkscape:connector-curvature="0" />
      <path
         d="m 249,850.66 c -1.0612,-0.61275 -0.68138,-3.6463 -0.68138,-3.6463 l 0.59844,-5.8633 0.59864,-5.8636 0.59845,-5.863 0.59855,-5.8633 0.59844,-5.8633 0.59864,-5.8633 0.59845,-5.8633 4.18,2.4133 4.18,2.4133 4.18,2.4133 4.18,2.4133 4.18,2.4133 4.18,2.4133 4.18,2.4133 4.18,2.4133 -4.7784,3.45 -4.7786,3.45 -4.7784,3.45 -4.7785,3.45 -4.7784,3.45 -4.7786,3.45 -4.7784,3.45 c 0,0 -2.4374,1.8458 -3.4986,1.233 z"
         id="path22"
         inkscape:connector-curvature="0" />
    </g>
    <path
       transform="translate(0,1002.4)"
       d="m 39.068,24.623 c -0.10074,-0.016 -0.20574,0.01766 -0.28125,0.09766 l -0.2793,0.29492 2.8516,2.6836 0.2793,-0.29492 c 0.12083,-0.1284 0.11471,-0.32842 -0.01367,-0.44922 l -2.3887,-2.248 c -0.04815,-0.045 -0.10752,-0.07398 -0.16797,-0.08398 z m -0.85156,0.70117 -5.8613,6.2285 2.8535,2.6836 5.8613,-6.2285 z m -6.1504,6.5352 v 0.002 l -0.0332,0.03516 -0.24219,0.25781 c -0.1162,0.12348 -0.11248,0.31176 0.002,0.43359 l -0.15039,0.4375 -0.19531,0.56445 -0.19531,0.56641 -0.19531,0.56445 -0.19727,0.56445 -0.19531,0.56641 c 0,0 -0.10809,0.29 -0.01758,0.375 0.09051,0.0855 0.375,-0.04102 0.375,-0.04102 l 0.55274,-0.22852 0.55078,-0.23047 0.55273,-0.22852 0.55274,-0.22852 0.55078,-0.23047 0.42773,-0.17773 c 0.12858,0.10748 0.31716,0.10057 0.43359,-0.02344 l 0.24023,-0.25586 0.0039,-0.002 0.03125,-0.03516 -2.8516,-2.6855 z"
       id="path26"
       inkscape:connector-curvature="0"
       style="fill:#555555" />
  </g>
  <path
     style="opacity:1;fill:#ffffff;fill-opacity:1;stroke:#ffffff;stroke-width:0.08349019;stroke-linejoin:round;stroke-miterlimit:4;stroke-dasharray:none;stroke-dashoffset:0;stroke-opacity:1;paint-order:stroke markers fill"
     d="M 19.079164,39.558089 C 17.873194,39.447961 17.177928,39.345896 16.333353,39.155016 11.852926,38.142448 7.9085649,35.390868 5.2183565,31.40121 4.2645537,29.986684 3.4166472,28.249739 2.8475436,26.544566 2.3185045,24.95944 1.9844197,23.266551 1.8532382,21.506195 1.792075,20.685457 1.8276848,18.558129 1.9149922,17.81631 2.1223305,16.054861 2.5114291,14.402474 3.0873161,12.83781 3.3356346,12.163136 4.0411781,10.637533 4.3830446,10.036049 6.2685472,6.7186668 8.8612907,4.1727408 12.064711,2.4930797 15.284066,0.80506919 18.963227,0.16280314 22.535844,0.66515535 30.294138,1.756056 36.560928,8.0107385 38.100683,16.199918 c 0.277723,1.477034 0.322189,2.00718 0.3218,3.836253 -3.16e-4,1.450811 -0.0107,1.721668 -0.09122,2.370713 -0.560391,4.518104 -2.392075,8.465567 -5.370621,11.574262 -1.478777,1.543394 -2.933406,2.642006 -4.764718,3.598591 -1.965139,1.026472 -3.945436,1.637977 -6.152862,1.899954 -0.524694,0.06233 -2.552995,0.115924 -2.963896,0.07837 z m 2.829167,-1.719277 c 3.286186,-0.402106 6.183152,-1.677611 8.741292,-3.848696 0.649831,-0.551518 2.028934,-2.010331 2.506961,-2.651878 2.093269,-2.809267 3.315338,-5.94875 3.677996,-9.448606 0.07139,-0.688941 0.07139,-3.017987 0,-3.70693 -0.251634,-2.428467 -0.981873,-4.869449 -2.074199,-6.93354 C 34.419464,10.604977 33.671266,9.4303656 33.20516,8.807592 32.714017,8.1513801 31.423735,6.7545053 30.844024,6.2514078 28.582278,4.2885391 26.039366,3.0176468 23.243364,2.4527523 19.61695,1.7200934 15.925011,2.2750755 12.590309,4.0541399 10.948501,4.9300523 9.6090252,5.9668115 8.2625127,7.4038722 7.3799405,8.345798 6.8136484,9.0789777 6.1628982,10.122259 c -1.6084562,2.578663 -2.5298718,5.42772 -2.7741086,8.577685 -0.066788,0.861396 -0.024174,2.701811 0.082335,3.556079 0.2526353,2.026213 0.746744,3.800549 1.5544408,5.581963 2.3658635,5.218025 6.9700146,8.895863 12.3279566,9.847676 0.600261,0.106627 0.965738,0.152174 1.887362,0.235168 0.39146,0.03522 2.151253,-0.01885 2.667446,-0.08201 z"
     id="path893"
     inkscape:connector-curvature="0" />
  <path
     style="opacity:1;fill:#ffffff;fill-opacity:1;stroke:#ffffff;stroke-width:0.08349019;stroke-linejoin:round;stroke-miterlimit:4;stroke-dasharray:none;stroke-dashoffset:0;stroke-opacity:1;paint-order:stroke markers fill"
     d="M 12.367939,31.084056 C 11.916265,30.900171 11.59338,30.579612 11.383015,30.106259 l -0.126874,-0.285497 -0.0107,-9.676829 c -0.01059,-9.526001 -0.0095,-9.681217 0.069,-9.957604 0.147998,-0.5209532 0.449946,-0.8889745 0.932251,-1.1362444 l 0.262789,-0.1347374 h 6.529299 6.529293 l 0.267779,0.1352743 c 0.460354,0.2325474 0.766855,0.5930362 0.92218,1.0846245 0.08303,0.262797 0.08354,0.305645 0.08181,6.785302 l -0.0023,6.520837 -0.320748,0.366375 -0.32074,0.366384 -0.0016,-6.810419 c -7.05e-4,-4.836471 -0.01409,-6.860161 -0.04583,-6.982011 C 26.078114,10.1109 25.89987,9.8731455 25.662048,9.7326943 L 25.445781,9.6050164 h -6.40801 -6.408007 L 12.46529,9.6988714 C 12.37484,9.7505354 12.234558,9.8709285 12.15358,9.9664885 11.859469,10.313575 11.879752,9.5258404 11.89149,20.145809 l 0.01059,9.545646 0.08772,0.174693 c 0.108786,0.216641 0.302578,0.422046 0.494151,0.52374 0.1382,0.0734 0.478743,0.07805 6.491764,0.08861 7.132646,0.01258 6.588757,0.03695 6.914967,-0.310797 0.218082,-0.232505 0.303002,-0.497714 0.303319,-0.947299 l 2.21e-4,-0.34793 0.323178,-0.136036 0.323186,-0.136036 v 0.526924 c 0,0.793166 -0.122756,1.146694 -0.546572,1.574039 -0.121723,0.122737 -0.325986,0.27547 -0.453917,0.339391 l -0.23259,0.116225 -6.509077,0.0088 -6.509084,0.0088 z"
     id="path895"
     inkscape:connector-curvature="0" />
  <path
     style="opacity:1;fill:#ffffff;fill-opacity:1;stroke:#ffffff;stroke-width:0.08349019;stroke-linejoin:round;stroke-miterlimit:4;stroke-dasharray:none;stroke-dashoffset:0;stroke-opacity:1;paint-order:stroke markers fill"
     d="m 26.806371,26.412606 c -0.581027,-0.582437 -1.056409,-1.072554 -1.056409,-1.089139 0,-0.04629 4.367654,-4.985578 4.408614,-4.985578 0.03468,0 2.140892,2.087058 2.140892,2.121409 0,0.01959 -4.407886,5.012305 -4.425165,5.012305 -0.0063,0 -0.486915,-0.476552 -1.067932,-1.058997 z"
     id="path897"
     inkscape:connector-curvature="0" />
  <path
     style="opacity:1;fill:#ffffff;fill-opacity:1;stroke:#ffffff;stroke-width:0.08349019;stroke-linejoin:round;stroke-miterlimit:4;stroke-dasharray:none;stroke-dashoffset:0;stroke-opacity:1;paint-order:stroke markers fill"
     d="m 24.415807,28.98783 c 0,-0.06695 0.191647,-0.710537 0.425891,-1.430199 0.355464,-1.092116 0.422251,-1.337485 0.403903,-1.483903 -0.01924,-0.153556 -0.0055,-0.195387 0.109796,-0.335573 l 0.131777,-0.160142 1.084405,1.086344 1.084403,1.086335 -0.165653,0.16474 c -0.129862,0.129159 -0.185092,0.158076 -0.255608,0.133862 -0.04947,-0.01703 -0.108146,-0.03083 -0.130383,-0.03068 -0.02224,1.25e-4 -0.594552,0.245659 -1.271817,0.545583 -0.677256,0.299915 -1.273082,0.545301 -1.324055,0.545301 -0.07471,0 -0.09266,-0.02356 -0.09266,-0.121708 z"
     id="path899"
     inkscape:connector-curvature="0" />
  <path
     style="opacity:1;fill:#ffffff;fill-opacity:1;stroke:#ffffff;stroke-width:0.08349019;stroke-linejoin:round;stroke-miterlimit:4;stroke-dasharray:none;stroke-dashoffset:0;stroke-opacity:1;paint-order:stroke markers fill"
     d="m 31.454366,21.107841 -1.058703,-1.061972 0.09278,-0.11137 c 0.139074,-0.166922 0.206464,-0.218715 0.286484,-0.220237 0.09032,-0.0017 2.00792,1.918441 2.014489,2.017176 0.0032,0.0396 0.0016,0.101094 -0.0032,0.136647 -0.0085,0.06787 -0.199103,0.301735 -0.245809,0.301735 -0.01496,0 -0.503546,-0.477891 -1.085837,-1.061974 z"
     id="path901"
     inkscape:connector-curvature="0" />
  <path
     style="opacity:1;fill:#ffffff;fill-opacity:1;stroke:#ffffff;stroke-width:0.08349019;stroke-linejoin:round;stroke-miterlimit:4;stroke-dasharray:none;stroke-dashoffset:0;stroke-opacity:1;paint-order:stroke markers fill"
     d="m 13.873073,12.959824 c -0.068,-0.02918 -0.170972,-0.245319 -0.170972,-0.358909 0,-0.04968 0.04466,-0.137913 0.09924,-0.196106 l 0.09923,-0.105799 h 5.134073 5.134082 l 0.110054,0.100944 c 0.151034,0.1385 0.151034,0.349288 0,0.487787 l -0.110054,0.100931 -5.122139,-0.0032 c -2.817168,-0.0017 -5.14525,-0.01331 -5.173513,-0.02546 z"
     id="path903"
     inkscape:connector-curvature="0" />
  <path
     style="opacity:1;fill:#ffffff;fill-opacity:1;stroke:#ffffff;stroke-width:0.08349019;stroke-linejoin:round;stroke-miterlimit:4;stroke-dasharray:none;stroke-dashoffset:0;stroke-opacity:1;paint-order:stroke markers fill"
     d="m 13.827988,15.327064 c -0.04687,-0.0415 -0.09649,-0.137699 -0.110276,-0.213796 -0.02097,-0.115798 -0.005,-0.15973 0.09784,-0.269403 l 0.122906,-0.131033 h 5.079614 c 3.784334,0 5.102136,0.01281 5.167926,0.05018 0.20264,0.115058 0.246727,0.334645 0.105586,0.52594 l -0.08379,0.113577 h -5.147299 c -4.842765,0 -5.152333,-0.0041 -5.232506,-0.07548 z"
     id="path905"
     inkscape:connector-curvature="0" />
  <path
     style="opacity:1;fill:#ffffff;fill-opacity:1;stroke:#ffffff;stroke-width:0.08349019;stroke-linejoin:round;stroke-miterlimit:4;stroke-dasharray:none;stroke-dashoffset:0;stroke-opacity:1;paint-order:stroke markers fill"
     d="m 14.10085,17.8903 c -0.116492,-0.02464 -0.210245,-0.141947 -0.239943,-0.300271 -0.0189,-0.100731 -0.0014,-0.158672 0.07688,-0.255794 l 0.101302,-0.12557 h 5.141489 5.141497 l 0.09757,0.120942 c 0.123807,0.153454 0.123807,0.294326 8e-6,0.447781 l -0.09757,0.120942 -5.067246,0.005 c -2.786985,0.0032 -5.10628,-0.0032 -5.15399,-0.01322 z"
     id="path907"
     inkscape:connector-curvature="0" />
  <path
     style="opacity:1;fill:#ffffff;fill-opacity:1;stroke:#ffffff;stroke-width:0.08349019;stroke-linejoin:round;stroke-miterlimit:4;stroke-dasharray:none;stroke-dashoffset:0;stroke-opacity:1;paint-order:stroke markers fill"
     d="m 13.815548,20.228407 c -0.102867,-0.109663 -0.118819,-0.153603 -0.09784,-0.269401 0.01378,-0.07614 0.0634,-0.172304 0.110275,-0.213789 0.08017,-0.07101 0.389006,-0.07547 5.217064,-0.07547 h 5.131848 l 0.09924,0.105799 c 0.161538,0.172229 0.120702,0.413994 -0.09014,0.533719 -0.06585,0.03737 -1.383593,0.05009 -5.167926,0.05009 h -5.079615 z"
     id="path909"
     inkscape:connector-curvature="0" />
  <path
     style="opacity:1;fill:#ffffff;fill-opacity:1;stroke:#ffffff;stroke-width:0.08349019;stroke-linejoin:round;stroke-miterlimit:4;stroke-dasharray:none;stroke-dashoffset:0;stroke-opacity:1;paint-order:stroke markers fill"
     d="m 13.860313,22.718017 c -0.178899,-0.146435 -0.191487,-0.385431 -0.02882,-0.547011 0.08743,-0.08684 0.120542,-0.08741 5.216699,-0.08741 h 5.128699 l 0.09924,0.105799 c 0.06253,0.06663 0.09924,0.155041 0.09924,0.239028 0,0.08398 -0.03665,0.172346 -0.09924,0.239028 l -0.09924,0.105811 -5.12622,-0.0017 c -3.965898,-7.51e-4 -5.140737,-0.01322 -5.190365,-0.05382 z"
     id="path911"
     inkscape:connector-curvature="0" />
  <path
     style="opacity:1;fill:#ffffff;fill-opacity:1;stroke:#ffffff;stroke-width:0.08349019;stroke-linejoin:round;stroke-miterlimit:4;stroke-dasharray:none;stroke-dashoffset:0;stroke-opacity:1;paint-order:stroke markers fill"
     d="m 13.827988,25.197864 c -0.04687,-0.0415 -0.09649,-0.137697 -0.110276,-0.213796 -0.02097,-0.115786 -0.005,-0.159721 0.09784,-0.269394 l 0.122906,-0.131042 h 5.079614 c 3.784334,0 5.102136,0.01273 5.167926,0.05009 0.210847,0.119725 0.251681,0.361498 0.09014,0.53372 l -0.09924,0.105799 H 19.04505 c -4.828059,0 -5.136894,-0.0041 -5.217064,-0.0754 z"
     id="path913"
     inkscape:connector-curvature="0" />
  <path
     style="opacity:1;fill:#ffffff;fill-opacity:1;stroke:#ffffff;stroke-width:0.08349019;stroke-linejoin:round;stroke-miterlimit:4;stroke-dasharray:none;stroke-dashoffset:0;stroke-opacity:1;paint-order:stroke markers fill"
     d="m 16.522029,27.741004 c 1.384186,-0.0058 3.649226,-0.0058 5.033419,0 1.384186,0.0058 0.251674,0.01155 -2.516712,0.01155 -2.768379,0 -3.900899,-0.0049 -2.516707,-0.01155 z"
     id="path915"
     inkscape:connector-curvature="0" />
  <path
     style="opacity:1;fill:#ffffff;fill-opacity:1;stroke:#ffffff;stroke-width:0.08349019;stroke-linejoin:round;stroke-miterlimit:4;stroke-dasharray:none;stroke-dashoffset:0;stroke-opacity:1;paint-order:stroke markers fill"
     d="m 13.910536,27.681166 c -0.09974,-0.03935 -0.163885,-0.133713 -0.191715,-0.282075 -0.01861,-0.09924 -8.71e-4,-0.157878 0.07712,-0.254513 l 0.101303,-0.125568 h 5.141491 5.141497 l 0.09757,0.120942 c 0.123135,0.152619 0.123901,0.294219 0.0023,0.444813 l -0.09517,0.117969 -5.102374,0.0032 c -2.806307,0.0017 -5.133759,-0.0094 -5.172114,-0.02455 z"
     id="path917"
     inkscape:connector-curvature="0" />
</svg>
